<?xml version="1.0" encoding="UTF-8"?>
<!-- Generator: Adobe Illustrator 18.1.1, SVG Export Plug-In . SVG Version: 6.00 Build 0)  -->
<!DOCTYPE svg PUBLIC "-//W3C//DTD SVG 1.1//EN" "http://www.w3.org/Graphics/SVG/1.1/DTD/svg11.dtd">
<svg version="1.1" id="_x31_0" xmlns="http://www.w3.org/2000/svg" xmlns:xlink="http://www.w3.org/1999/xlink" x="0px" y="0px" viewBox="0 0 512 512" style="enable-background:new 0 0 512 512;" xml:space="preserve">
<style type="text/css">
	.st0{fill:#374149;}
</style>
<g>
	<path class="st0" d="M424.849,336.04c4.01-14.956,27.57-27.91,27.57-44.118c0-16.29-23.56-29.244-27.57-44.2   c-4.092-15.454,9.693-38.431,1.84-51.968c-0.384-0.665-0.996-1.15-1.461-1.75c-0.334-0.428-0.674-0.856-1.053-1.26   c-9.938-10.644-33.25-11.199-43.441-21.472c-0.755-0.75-1.424-1.506-2.007-2.338c-8.454-11.146-9.604-32.177-19.665-41.352   c-0.22-0.204-0.461-0.384-0.69-0.571c-0.681-0.563-1.273-1.245-2.039-1.694c-12.505-7.213-32.822,3.79-48.097,2.469   c-0.558-0.05-1.122-0.11-1.652-0.196c-0.779-0.114-1.558-0.237-2.305-0.433c-14.953-4.01-27.906-27.575-44.114-27.575   c-16.294,0-29.244,23.565-44.2,27.575c-0.742,0.196-1.514,0.314-2.289,0.433c-0.53,0.086-1.094,0.146-1.657,0.196   c-15.217,1.318-35.595-9.682-48.022-2.469c-4.512,2.591-7.523,7.27-9.861,12.701c-4.846,11.194-7.102,25.816-14.54,33.254   c-10.269,10.273-33.519,10.828-43.51,21.472c-0.38,0.404-0.722,0.832-1.057,1.26c-0.47,0.6-1.086,1.086-1.469,1.75   c-7.854,13.537,5.932,36.514,1.836,51.968c-4.01,14.956-27.571,27.91-27.571,44.2c0,16.209,23.561,29.162,27.571,44.118   c4.096,15.454-9.69,38.431-1.836,51.968c0.387,0.661,1.004,1.15,1.473,1.754c0.334,0.424,0.673,0.848,1.049,1.248   c9.987,10.648,33.242,11.203,43.514,21.48c0.669,0.669,1.338,1.42,2.007,2.256c8.371,11.138,9.449,32.21,19.607,41.41   c0.237,0.212,0.49,0.4,0.73,0.599c0.69,0.559,1.285,1.241,2.056,1.69c12.431,7.213,32.822-3.798,48.039-2.473   c0.554,0.054,1.106,0.11,1.628,0.192c0.779,0.118,1.554,0.241,2.301,0.441c14.956,4.01,27.906,27.575,44.2,27.575   c16.209,0,29.162-23.565,44.114-27.575c0.75-0.2,1.534-0.322,2.317-0.441c0.522-0.082,1.073-0.138,1.624-0.192   c15.274-1.33,35.6,9.686,48.113,2.473c4.512-2.591,7.437-7.27,9.778-12.701c4.843-11.194,7.099-25.816,14.622-33.254   c10.195-10.277,33.511-10.832,43.449-21.48c0.371-0.4,0.71-0.824,1.041-1.248c0.469-0.604,1.081-1.094,1.465-1.754   C434.542,374.472,420.757,351.495,424.849,336.04z M407.722,291.84c0,50.381-25.319,94.915-63.922,121.568   c-23.809,16.462-52.551,26.07-83.634,26.07c-39.77,0-75.867-15.793-102.434-41.442c-27.91-26.821-45.204-64.505-45.204-106.196   c0-50.299,25.315-94.834,63.918-121.486c23.814-16.462,52.637-26.07,83.721-26.07c39.769,0,75.781,15.793,102.353,41.442   C390.423,212.547,407.722,250.231,407.722,291.84z"/>
	<path class="st0" d="M251.957,53.028c0.457-0.016,0.914-0.029,1.371-0.041h0.004c0.033-0.004,0.065-0.004,0.098-0.004   c2.301-0.066,4.598-0.098,6.882-0.098V27.82c-2.521,0-5.058,0.037-7.596,0.106l-1.445,0.045h-0.012l0,0l-0.167,0.008   L251.957,53.028z"/>
	<path class="st0" d="M29.754,355.64c-0.025-0.082-0.045-0.163-0.07-0.245c-0.004-0.012-0.004-0.012-0.008-0.029   c-0.004-0.024-0.012-0.045-0.016-0.07c-0.004-0.016-0.009-0.028-0.013-0.045c-0.008-0.028-0.016-0.057-0.024-0.09   c-0.008-0.02-0.013-0.045-0.021-0.07c-0.004-0.012-0.008-0.028-0.012-0.041c-0.008-0.028-0.016-0.061-0.025-0.09   c0-0.004-0.004-0.012-0.004-0.012c-0.008-0.041-0.02-0.082-0.032-0.118c0-0.008,0-0.016-0.005-0.025   c-0.412-1.505-0.807-3.018-1.187-4.536l-24.054,6.042l-0.094,0.021v0.004l-0.163,0.041c0.751,2.994,1.554,5.969,2.407,8.918   l24.083-6.96c-0.262-0.894-0.514-1.791-0.763-2.693V355.64z"/>
	<path class="st0" d="M147.952,80.913c0.71-0.379,1.424-0.754,2.138-1.126l0.013-0.008c0.073-0.037,0.146-0.078,0.22-0.114   c0,0,0.016-0.008,0.025-0.013c0.02-0.012,0.041-0.02,0.061-0.032c0.012-0.009,0.025-0.013,0.037-0.021   c0.029-0.012,0.057-0.029,0.086-0.045c0.016-0.004,0.045-0.02,0.061-0.029c0.017-0.008,0.033-0.016,0.05-0.024   c0.012-0.008,0.032-0.021,0.049-0.029c0.016-0.008,0.033-0.016,0.049-0.025c0.029-0.012,0.062-0.028,0.086-0.045   c0.017-0.008,0.033-0.016,0.045-0.024c0.021-0.008,0.041-0.021,0.062-0.029c0.012-0.008,0.028-0.016,0.041-0.025   c0.028-0.012,0.069-0.032,0.094-0.045c0.012-0.008,0.021-0.012,0.021-0.012c0.028-0.016,0.061-0.033,0.082-0.041   c0.012-0.008,0.024-0.012,0.036-0.02c0.029-0.013,0.058-0.029,0.086-0.041c0.008-0.009,0.02-0.013,0.032-0.021   c0.029-0.012,0.054-0.024,0.082-0.041c0.013-0.004,0.025-0.012,0.041-0.02c0.021-0.009,0.05-0.025,0.07-0.037   c0.008-0.004,0.021-0.008,0.029-0.013c0.037-0.02,0.065-0.032,0.098-0.049c0.012-0.008,0.025-0.012,0.037-0.02   c0.025-0.013,0.045-0.025,0.074-0.037c0.008-0.004,0.02-0.012,0.029-0.017c0.028-0.012,0.073-0.036,0.102-0.053   c0,0,0.012-0.004,0.02-0.008c0.029-0.016,0.058-0.029,0.086-0.045c0.008-0.004,0.016-0.008,0.024-0.012   c0.037-0.017,0.07-0.037,0.106-0.054l0.008-0.004c0.033-0.02,0.066-0.033,0.098-0.053l0.021-0.008   c0.07-0.037,0.151-0.078,0.22-0.11c0.004-0.004,0.004-0.004,0.004-0.004c0.037-0.021,0.082-0.041,0.114-0.058   c0.938-0.477,1.865-0.938,2.807-1.399l-11.024-22.512c-2.664,1.306-5.303,2.66-7.918,4.051c-0.049,0.021-0.102,0.053-0.155,0.074   l0.004,0.004c-0.049,0.025-0.102,0.049-0.15,0.078L147.952,80.913z"/>
	<path class="st0" d="M58.646,462.027l-0.114,0.094l0,0l-0.126,0.11c1.983,2.35,4.01,4.663,6.074,6.94l18.571-16.833   c-1.868-2.065-3.704-4.158-5.503-6.287L58.646,462.027z"/>
	<path class="st0" d="M24.69,250.794c0.171-0.983,0.351-1.97,0.534-2.95c0-0.008,0.004-0.012,0.004-0.012   c0.009-0.045,0.013-0.074,0.021-0.114c0,0,0-0.008,0.004-0.016c0.004-0.037,0.012-0.078,0.021-0.118l0.004-0.017   c0.004-0.033,0.012-0.065,0.016-0.098c0.004-0.008,0.004-0.021,0.008-0.033c0.008-0.037,0.013-0.074,0.021-0.11   c0.004-0.008,0.004-0.016,0.004-0.024c0.008-0.033,0.012-0.058,0.016-0.086c0.004-0.017,0.008-0.033,0.013-0.05   c0.004-0.024,0.008-0.045,0.012-0.065c0-0.017,0.004-0.033,0.008-0.045c0.004-0.033,0.012-0.07,0.016-0.098   c0.005-0.02,0.009-0.041,0.013-0.061c0.004-0.012,0.008-0.037,0.012-0.053c0.004-0.021,0.008-0.041,0.008-0.062   c0.004-0.008,0.008-0.025,0.008-0.033c0.009-0.045,0.017-0.086,0.025-0.13c0.004-0.008,0.004-0.025,0.008-0.033   c0.004-0.024,0.008-0.045,0.013-0.069c0.004-0.017,0.004-0.021,0.008-0.037c0.008-0.045,0.016-0.09,0.024-0.135   c0,0,0.004-0.016,0.004-0.024c0.009-0.025,0.013-0.049,0.017-0.07c0-0.016,0.004-0.024,0.008-0.041   c0.004-0.02,0.008-0.045,0.012-0.065c0-0.009,0.004-0.021,0.004-0.029c0.009-0.045,0.021-0.09,0.029-0.134   c0,0,0.004-0.025,0.004-0.033c0.004-0.025,0.013-0.049,0.017-0.074c0-0.008,0.004-0.021,0.004-0.029   c0.008-0.049,0.02-0.102,0.033-0.155v-0.008c0.004-0.024,0.008-0.049,0.016-0.078c0-0.012,0-0.012,0.004-0.028   c0.016-0.078,0.033-0.155,0.045-0.233c0.004-0.016,0.004-0.021,0.008-0.037c0.004-0.025,0.009-0.049,0.017-0.07   c0-0.008,0.004-0.024,0.004-0.032c0.008-0.041,0.016-0.082,0.024-0.122c0.004-0.017,0.009-0.029,0.009-0.045   c0.004-0.021,0.008-0.041,0.012-0.062c0.004-0.016,0.008-0.037,0.012-0.049c0.004-0.021,0.008-0.041,0.012-0.062   c0.005-0.028,0.013-0.065,0.017-0.094c0.004-0.016,0.008-0.033,0.012-0.049c0.004-0.025,0.008-0.045,0.012-0.066   c0.005-0.016,0.009-0.037,0.013-0.053c0.004-0.029,0.008-0.053,0.016-0.086c0-0.012,0.004-0.025,0.008-0.041   c0.004-0.029,0.013-0.058,0.017-0.086c0.004-0.017,0.008-0.029,0.008-0.041c0.004-0.025,0.012-0.066,0.016-0.086   c0.004-0.013,0.004-0.021,0.004-0.021c0.013-0.045,0.021-0.082,0.025-0.122c0.004-0.008,0.004-0.016,0.008-0.024   c0.004-0.029,0.013-0.066,0.021-0.098c0,0,0-0.012,0.004-0.02c0.016-0.082,0.033-0.155,0.049-0.241c0-0.004,0-0.008,0-0.008   c0.082-0.384,0.159-0.767,0.241-1.146l-24.34-5.141l-0.024-0.004l0,0l-0.163-0.033c-0.608,2.889-1.163,5.798-1.677,8.718   c-0.017,0.062-0.029,0.126-0.041,0.188h0.004c-0.013,0.057-0.025,0.11-0.033,0.167L24.69,250.794z"/>
	<path class="st0" d="M66.757,151.668c0.004-0.012,0.012-0.02,0.021-0.033c0.016-0.016,0.028-0.037,0.041-0.053   c0.008-0.016,0.02-0.029,0.028-0.041c0.013-0.016,0.029-0.041,0.041-0.057c0.013-0.013,0.021-0.025,0.029-0.041   c0.025-0.029,0.037-0.05,0.061-0.078c0.005-0.013,0.013-0.021,0.021-0.033c0.016-0.021,0.037-0.045,0.053-0.07   c0.004-0.008,0.013-0.016,0.017-0.024c0.024-0.029,0.045-0.062,0.069-0.094c0,0,0.009-0.008,0.013-0.016   c0.02-0.029,0.041-0.057,0.065-0.09l0.004-0.008c0.029-0.037,0.05-0.066,0.074-0.102h0.004c0.021-0.033,0.049-0.066,0.07-0.098   c0,0,0.008-0.009,0.012-0.013c0.045-0.065,0.098-0.134,0.147-0.204l0.004-0.004c1.391-1.893,2.811-3.766,4.255-5.614l-19.75-15.434   c-1.815,2.322-3.582,4.675-5.32,7.058c-0.045,0.054-0.09,0.118-0.134,0.172l0.004,0.004c-0.033,0.045-0.07,0.086-0.102,0.134   L66.757,151.668z"/>
	<path class="st0" d="M485.963,243.732c0,0,0.004,0.008,0.004,0.012c0.016,0.086,0.033,0.159,0.049,0.241   c0.004,0.008,0.004,0.016,0.004,0.016c0.008,0.037,0.017,0.074,0.021,0.102c0.004,0.008,0.004,0.016,0.008,0.024   c0.004,0.041,0.012,0.078,0.02,0.114c0,0,0.005,0.016,0.009,0.029c0.004,0.02,0.012,0.061,0.016,0.086   c0,0.012,0.004,0.024,0.008,0.041c0.004,0.028,0.013,0.057,0.017,0.086c0.004,0.016,0.008,0.029,0.008,0.041   c0.008,0.033,0.012,0.057,0.016,0.086c0.004,0.016,0.008,0.037,0.013,0.053c0.004,0.021,0.008,0.041,0.012,0.066   c0.004,0.016,0.008,0.033,0.012,0.049c0.004,0.029,0.012,0.066,0.017,0.094c0.004,0.021,0.008,0.041,0.012,0.062   c0.004,0.012,0.008,0.033,0.012,0.049c0.004,0.021,0.008,0.041,0.012,0.062c0,0.016,0.005,0.028,0.009,0.045   c0.008,0.041,0.016,0.082,0.024,0.122c0,0.008,0.004,0.024,0.004,0.032c0.009,0.021,0.013,0.045,0.017,0.07   c0.004,0.016,0.004,0.021,0.008,0.037c0.012,0.078,0.029,0.155,0.045,0.233c0.004,0.016,0.004,0.016,0.004,0.028   c0.008,0.029,0.012,0.054,0.016,0.078v0.008c0.013,0.054,0.025,0.106,0.033,0.155c0,0.008,0.004,0.021,0.004,0.029   c0.004,0.025,0.013,0.049,0.017,0.074c0,0.008,0.004,0.024,0.004,0.024c0.008,0.054,0.02,0.098,0.029,0.143   c0,0.008,0.004,0.02,0.004,0.029c0.004,0.02,0.008,0.045,0.012,0.065c0.004,0.017,0.008,0.025,0.008,0.041   c0.004,0.021,0.008,0.045,0.017,0.07c0,0.008,0,0.02,0,0.02c0.012,0.05,0.02,0.094,0.028,0.139c0.004,0.016,0.004,0.02,0.008,0.037   c0.005,0.024,0.009,0.045,0.013,0.069c0.004,0.008,0.004,0.025,0.008,0.033c0.008,0.045,0.016,0.086,0.025,0.13   c0,0.008,0.004,0.025,0.008,0.033c0,0.021,0.004,0.041,0.008,0.062c0.004,0.016,0.008,0.041,0.012,0.053   c0.004,0.02,0.008,0.041,0.013,0.061c0.004,0.029,0.012,0.066,0.016,0.098c0.004,0.012,0.008,0.028,0.008,0.045   c0.004,0.02,0.008,0.041,0.012,0.065c0.005,0.017,0.009,0.033,0.013,0.05c0.004,0.028,0.008,0.053,0.016,0.086   c0,0.008,0,0.016,0.004,0.024c0.008,0.037,0.013,0.074,0.021,0.11c0.004,0.012,0.004,0.025,0.008,0.033   c0.004,0.033,0.012,0.065,0.016,0.098l0.004,0.013c0.009,0.045,0.017,0.086,0.021,0.122c0.004,0.008,0.004,0.012,0.004,0.012   c0.008,0.045,0.012,0.074,0.021,0.114c0,0,0.004,0.008,0.004,0.016c0.183,0.979,0.363,1.966,0.534,2.95l24.69-4.308   c-0.51-2.938-1.077-5.862-1.685-8.767c-0.008-0.046-0.021-0.098-0.029-0.147v0.004c-0.012-0.057-0.02-0.11-0.033-0.163   l-24.242,5.116l-0.122,0.025l0,0l-0.163,0.037C485.808,242.969,485.886,243.352,485.963,243.732z"/>
	<path class="st0" d="M434.452,446.051c-1.799,2.13-3.635,4.222-5.503,6.287l18.571,16.833c2.007-2.211,3.97-4.459,5.899-6.74   c0.024-0.024,0.045-0.049,0.069-0.074h-0.004c0.037-0.045,0.074-0.086,0.11-0.126L434.452,446.051z"/>
	<path class="st0" d="M483.87,350.32l-0.045-0.008l0,0l-0.163-0.041c-0.38,1.518-0.775,3.031-1.187,4.536   c-0.005,0.009-0.005,0.017-0.005,0.025c-0.012,0.037-0.024,0.078-0.032,0.114l-0.004,0.016c-0.009,0.029-0.017,0.062-0.025,0.09   c-0.004,0.013-0.008,0.029-0.012,0.041c-0.008,0.025-0.013,0.05-0.021,0.07c-0.008,0.033-0.016,0.062-0.024,0.09   c-0.004,0.017-0.009,0.029-0.013,0.045c-0.004,0.025-0.012,0.046-0.016,0.07c-0.004,0.017-0.004,0.017-0.008,0.029   c-0.025,0.082-0.045,0.163-0.07,0.245v0.004c-0.237,0.845-0.474,1.689-0.718,2.53l0,0l0,0c-0.012,0.053-0.028,0.11-0.045,0.163   l24.083,6.96c0.824-2.86,1.599-5.74,2.334-8.641c0.012-0.037,0.02-0.082,0.033-0.118l0,0c0.012-0.054,0.028-0.106,0.041-0.159   L483.87,350.32z"/>
	<path class="st0" d="M460.069,129.695L460.069,129.695c-0.033-0.041-0.065-0.09-0.102-0.13l-19.518,15.25l-0.102,0.077l0,0   l-0.13,0.106c1.444,1.848,2.864,3.721,4.255,5.614l0.004,0.004c0.049,0.07,0.102,0.139,0.147,0.204   c0.004,0.004,0.008,0.009,0.012,0.013c0.021,0.032,0.049,0.065,0.07,0.098h0.004c0.024,0.037,0.045,0.066,0.074,0.102l0.004,0.008   c0.024,0.033,0.045,0.061,0.065,0.09c0.004,0.008,0.009,0.012,0.009,0.012c0.028,0.037,0.049,0.07,0.073,0.098   c0.004,0.008,0.013,0.016,0.017,0.024c0.016,0.025,0.037,0.049,0.053,0.07c0.008,0.012,0.016,0.02,0.021,0.033   c0.024,0.028,0.036,0.049,0.061,0.078c0.008,0.016,0.016,0.028,0.029,0.041c0.012,0.016,0.028,0.041,0.041,0.057   c0.008,0.012,0.02,0.025,0.028,0.041c0.013,0.016,0.025,0.037,0.041,0.053c0.009,0.013,0.017,0.021,0.021,0.033l20.276-14.736   c-1.746-2.403-3.533-4.77-5.357-7.111C460.134,129.78,460.102,129.736,460.069,129.695z"/>
	<path class="st0" d="M359.418,78.506c0.033,0.017,0.078,0.037,0.11,0.054c0,0,0.004,0.004,0.008,0.008   c0.069,0.033,0.15,0.074,0.22,0.11l0.012,0.008c0.041,0.02,0.074,0.033,0.106,0.053l0.008,0.004   c0.037,0.017,0.07,0.037,0.106,0.054c0.008,0.004,0.016,0.008,0.024,0.012c0.029,0.016,0.058,0.029,0.086,0.045   c0.008,0.004,0.016,0.008,0.016,0.008c0.033,0.017,0.078,0.041,0.106,0.053c0.008,0.005,0.02,0.013,0.028,0.017   c0.029,0.012,0.049,0.024,0.074,0.037c0.012,0.008,0.025,0.012,0.037,0.02c0.033,0.017,0.061,0.029,0.098,0.049   c0.008,0.005,0.021,0.009,0.029,0.013c0.02,0.012,0.049,0.028,0.07,0.037c0.016,0.008,0.028,0.016,0.041,0.02   c0.028,0.017,0.053,0.029,0.082,0.041c0.012,0.008,0.024,0.012,0.032,0.021c0.029,0.012,0.058,0.028,0.086,0.041   c0.012,0.008,0.024,0.012,0.036,0.02c0.021,0.008,0.054,0.025,0.074,0.037c0.008,0.004,0.017,0.008,0.029,0.016   c0.025,0.013,0.066,0.033,0.094,0.045c0.013,0.009,0.029,0.017,0.041,0.025c0.021,0.008,0.041,0.021,0.062,0.029   c0.012,0.008,0.028,0.016,0.045,0.024c0.024,0.017,0.057,0.033,0.086,0.045c0.016,0.009,0.033,0.017,0.049,0.025   c0.017,0.008,0.037,0.021,0.049,0.029c0.017,0.008,0.033,0.016,0.05,0.024c0.016,0.009,0.045,0.025,0.061,0.029   c0.029,0.016,0.057,0.033,0.086,0.045c0.012,0.008,0.025,0.012,0.037,0.021c0.02,0.012,0.041,0.02,0.061,0.032   c0.009,0.005,0.021,0.009,0.025,0.013c0.074,0.037,0.147,0.078,0.22,0.114l0.013,0.008c0.714,0.371,1.428,0.746,2.138,1.126   l11.806-22.112c-2.614-1.399-5.258-2.746-7.922-4.055c-0.045-0.029-0.098-0.053-0.147-0.078l0,0   c-0.053-0.025-0.098-0.049-0.15-0.074l-10.906,22.271l-0.045,0.09l0,0l-0.074,0.15C357.553,77.568,358.479,78.029,359.418,78.506z"/>
	<path class="st0" d="M358.842,234.692c-1.086-1.926-2.256-3.847-3.509-5.769c-0.167-0.249-0.253-0.417-0.42-0.67   c-0.082-0.082-0.167-0.249-0.249-0.334c0,0-0.086-0.082-0.086-0.163c-2.419-3.509-5.01-6.854-7.768-10.11   c-0.918-1.003-1.84-2.007-2.84-3.01c-1.926-2.089-3.929-4.178-6.018-6.099c-0.416-0.417-0.836-0.751-1.17-1.086   c-2.003-1.84-4.092-3.509-6.181-5.095c-0.67-0.588-1.42-1.171-2.089-1.754c-2.844-2.089-5.683-4.014-8.69-5.85   c-0.086,0-0.253-0.082-0.42-0.167c-12.447-7.605-26.151-12.701-40.271-15.206c-1.587-0.253-3.174-0.502-4.761-0.669   c-1.506-0.167-2.926-0.334-4.345-0.502c-2.926-0.25-5.932-0.421-9.025-0.421v0.253c-17.882-0.167-35.261,3.843-50.801,11.281   c-0.334,0.167-0.669,0.334-0.918,0.416c-2.342,1.171-4.68,2.51-6.936,3.762c-1.253,0.75-2.59,1.587-3.843,2.338   c-1.338,0.837-2.59,1.754-3.929,2.677c-2.17,1.501-4.259,3.006-6.266,4.675c-0.416,0.334-0.918,0.669-1.334,1.089   c-1.089,0.918-2.089,1.922-3.178,2.84c-17.629,15.874-30.329,37.097-35.343,61.078c0,0.082,0,0.082,0,0.082   c-0.416,1.754-0.669,3.594-0.918,5.434c-0.334,1.754-0.67,3.59-0.837,5.43c-0.167,1.668-0.249,3.341-0.334,5.014   c-0.167,2.003-0.334,4.01-0.334,6.014c0,1.754,0.086,3.594,0.086,5.43c0.082,1.758,0.167,3.513,0.249,5.348   c0.253,2.09,0.42,4.178,0.755,6.349c0.167,1.256,0.334,2.594,0.583,3.847c0.416,2.505,0.918,5.014,1.506,7.433   c0.167,0.755,0.416,1.506,0.583,2.256c0.75,2.926,1.673,5.769,2.672,8.609c0.086,0.334,0.167,0.583,0.253,0.832   c2.338,6.519,5.263,12.867,8.858,19.053c1.587,2.672,3.255,5.348,5.01,7.938c2.089,2.922,4.263,5.765,6.602,8.438   c0.836,1.085,1.839,2.089,2.758,3.092c1.922,2.17,3.929,4.178,6.099,6.181c1.253,1.253,2.59,2.423,3.929,3.594   c0.249,0.167,0.502,0.416,0.75,0.583c1.587,1.424,3.26,2.677,5.014,4.01c0.836,0.588,1.587,1.257,2.423,1.84   c1.253,0.837,2.505,1.754,3.843,2.591c1.922,1.166,3.843,2.338,5.765,3.508c1.754,0.918,3.426,1.836,5.181,2.758   c0.335,0.167,0.67,0.334,1.004,0.502c1.587,0.75,3.255,1.42,4.928,2.17c1.754,0.754,3.509,1.506,5.263,2.174   c0.587,0.249,1.085,0.416,1.673,0.583c1.587,0.584,3.174,1.086,4.761,1.506c1.673,0.583,3.342,1.086,5.014,1.502   c0.836,0.253,1.754,0.502,2.59,0.669c0.249,0.086,0.502,0.086,0.75,0.167c3.762,0.837,7.519,1.506,11.362,2.007   c0.086,0,0.167,0.082,0.334,0.082c2.926,0.334,5.85,0.421,8.69,0.584c0.922,0,1.84,0.086,2.677,0.171h1.252   c2.591,0,5.182-0.086,7.768-0.253c1.171-0.082,2.423-0.082,3.594-0.168c1.673-0.167,3.26-0.416,4.846-0.669   c2.338-0.334,4.594-0.583,6.936-0.999c0.75-0.172,1.502-0.421,2.338-0.588c19.554-4.259,37.264-13.618,51.638-26.653   c16.975-15.21,29.154-35.555,34.592-58.524c0.208-0.869,0.478-1.714,0.669-2.59c0.004-0.012,0.004-0.029,0.008-0.041l0.155,0.078   c0.502-2.338,0.755-4.594,1.171-6.936c0.167-1.252,0.416-2.505,0.502-3.758c0.249-2.007,0.334-4.096,0.502-6.185l0.249-4.761   c0-2.089-0.082-4.263-0.167-6.352c0-1.42-0.082-2.926-0.167-4.345c-0.167-2.338-0.502-4.762-0.832-7.185   c-0.086-0.918-0.253-1.922-0.42-2.925c-0.417-2.758-1.004-5.516-1.669-8.27c-0.086-0.421-0.253-0.837-0.334-1.253   c-2.591-9.946-6.434-19.636-11.782-28.827V234.692z M314.532,351.291c-0.192,0.171-0.367,0.362-0.563,0.53l-53.718-59.732   l-0.07,0.033l0.045-0.058l0.025,0.025l0.249-0.167l78.625,16.71C335.584,325.335,326.763,340.152,314.532,351.291z"/>
</g>
</svg>