<?xml version="1.0" encoding="UTF-8"?>
<!-- Generator: Adobe Illustrator 18.0.0, SVG Export Plug-In . SVG Version: 6.00 Build 0)  -->
<!DOCTYPE svg PUBLIC "-//W3C//DTD SVG 1.1//EN" "http://www.w3.org/Graphics/SVG/1.1/DTD/svg11.dtd">
<svg version="1.1" id="Layer_1" xmlns="http://www.w3.org/2000/svg" xmlns:xlink="http://www.w3.org/1999/xlink" x="0px" y="0px" viewBox="0 0 32 32" enable-background="new 0 0 32 32" xml:space="preserve">
<path fill="#888888" d="M29.9,27.6l-5-5.8c-0.3-0.4-0.4-1.1-0.1-1.6c0.1-0.2,2.3-3.8,2.3-7c0-7.1-5.8-12.8-12.8-12.8S1.5,6,1.5,13.1  s5.8,12.8,12.8,12.8c2.4,0,5.1-1.2,5.2-1.2c0.4-0.2,1.2,0,1.5,0.3l5,5.9c0.4,0.5,1.1,0.8,1.8,0.8c0.6,0,1.1-0.2,1.5-0.5l0.4-0.3  c0.5-0.4,0.8-1,0.8-1.6C30.5,28.6,30.3,28,29.9,27.6 M23.2,13.1c0,4.9-4,8.9-8.9,8.9s-8.9-4-8.9-8.9s4-8.9,8.9-8.9  C19.2,4.2,23.2,8.2,23.2,13.1"/>
</svg>